<svg width="16.000000" height="16.000000" viewBox="0 0 16 16" fill="none" xmlns="http://www.w3.org/2000/svg" xmlns:xlink="http://www.w3.org/1999/xlink">
	<desc>
			Created with Pixso.
	</desc>
	<defs/>
	<path id="形状" d="M4.96826 14.7465C4.40479 15.1631 3.61182 15.0563 3.17822 14.5055C2.9248 14.1814 2.84717 13.7531 2.9707 13.3605L4.14746 9.63794L1.00879 7.29797C0.736328 7.09705 0.557129 6.79431 0.511719 6.45898C0.466309 6.12354 0.558594 5.78406 0.767578 5.51794C1.0127 5.20764 1.38623 5.02649 1.78125 5.02649L5.61426 5.02051L6.77539 1.38501C6.98779 0.719971 7.70508 0.351929 8.37793 0.556519C8.7793 0.676514 9.0957 0.986328 9.22461 1.38501L10.3857 5.02002L14.2188 5.02649C14.9248 5.02747 15.5015 5.59143 15.5005 6.29248C15.4985 6.68921 15.3101 7.06189 14.9912 7.29797L11.853 9.63794L13.0293 13.3605C13.2412 14.032 12.8564 14.741 12.1777 14.9449C11.7856 15.0627 11.3613 14.989 11.0317 14.746L8 12.501L4.96826 14.746L4.96826 14.7465M8 11.2565L11.6265 13.9425C11.7021 13.9979 11.7998 14.0146 11.8896 13.9874C12.0386 13.9425 12.1177 13.7965 12.0747 13.6615L10.6846 9.26147L14.3931 6.49646C14.4595 6.44873 14.499 6.37244 14.5 6.29102C14.5 6.14795 14.3765 6.02649 14.2168 6.026L9.6543 6.01892L8.27197 1.68896C8.24316 1.60364 8.17432 1.53796 8.08789 1.51294C7.93359 1.46643 7.77295 1.54895 7.72803 1.68896L6.34521 6.01892L1.78271 6.02649C1.69385 6.02588 1.60986 6.06592 1.5542 6.13501C1.51123 6.18909 1.49268 6.25854 1.50244 6.3269C1.51221 6.39526 1.5498 6.45654 1.60645 6.49646L5.31543 9.26147L3.9248 13.6615C3.8999 13.7402 3.91602 13.8263 3.96729 13.891C4.06201 14.012 4.24609 14.0365 4.37354 13.9425L8 11.2565Z" clip-rule="evenodd" fill-rule="evenodd" fill="#0E0E0E" fill-opacity="1.000000"/>
</svg>
