<svg width="26.000000" height="26.000000" viewBox="0 0 26 26" fill="none" xmlns="http://www.w3.org/2000/svg" xmlns:xlink="http://www.w3.org/1999/xlink">
	<desc>
			Created with Pixso.
	</desc>
	<defs/>
	<path id="矩形" d="M7.11084 4.24994L18.8887 4.24994C20.9595 4.24994 22.6387 5.92889 22.6387 7.99994L22.6387 15.9999C22.6387 18.071 20.9595 19.7499 18.8887 19.7499L15.4761 19.7499L12.9785 22.0361L10.6777 19.7499L7.11084 19.7499C5.10645 19.7499 3.46973 18.1776 3.36621 16.1991L3.36084 15.9999L3.36084 7.99994C3.36084 5.92889 5.03955 4.24994 7.11084 4.24994L7.11084 4.24994M21.1387 7.99988C21.1387 6.75726 20.1313 5.74988 18.8887 5.74988L7.11084 5.74988C5.86816 5.74988 4.86084 6.75726 4.86084 7.99988L4.86084 15.9999C4.86084 17.2426 5.86816 18.2499 7.11084 18.2499L11.2964 18.2499L13.02 19.9629L14.894 18.2499L18.8887 18.2499C20.1313 18.2499 21.1387 17.2426 21.1387 15.9999L21.1387 7.99988Z" clip-rule="evenodd" fill-rule="evenodd" fill="#0E0E0E" fill-opacity="1.000000"/>
</svg>
