<svg width="26.000000" height="26.000000" viewBox="0 0 26 26" fill="none" xmlns="http://www.w3.org/2000/svg" xmlns:xlink="http://www.w3.org/1999/xlink">
	<desc>
			Created with Pixso.
	</desc>
	<defs/>
	<mask id="path-1-inside-1" fill="white">
		<path id="形状" d="M13.5 5.93018C14.5352 4.74365 16.1152 4 17.7686 4C20.7109 4 23 6.24902 23 9.1001C23 12.5884 19.7666 15.4395 14.8809 19.7783L13.5 21L12.1191 19.7783C7.2334 15.4575 4 12.5884 4 9.1001C4 6.23145 6.30664 4 9.23145 4C10.8848 4 12.4648 4.76123 13.5 5.93018L13.5 5.93018Z" clip-rule="evenodd" fill-rule="evenodd" fill-opacity="0.000000"/>
	</mask>
	<path id="形状" d="M13.5 5.93018C14.5352 4.74365 16.1152 4 17.7686 4C20.7109 4 23 6.24902 23 9.1001C23 12.5884 19.7666 15.4395 14.8809 19.7783L13.5 21L12.1191 19.7783C7.2334 15.4575 4 12.5884 4 9.1001C4 6.23145 6.30664 4 9.23145 4C10.8848 4 12.4648 4.76123 13.5 5.93018L13.5 5.93018Z" clip-rule="evenodd" fill-rule="evenodd" fill="#0E0E0E" fill-opacity="1.000000"/>
</svg>
