<svg width="26.000000" height="26.000000" viewBox="0 0 26 26" fill="none" xmlns="http://www.w3.org/2000/svg" xmlns:xlink="http://www.w3.org/1999/xlink">
	<desc>
			Created with Pixso.
	</desc>
	<defs/>
	<mask id="path-1-inside-1" fill="white">
		<path id="形状" d="M13.5 5.93024C14.5352 4.74377 16.1157 4 17.7686 4C20.7114 4 23 6.24896 23 9.09998C23 12.5886 19.7666 15.4396 14.8804 19.7781L13.5 21L12.1196 19.7781C7.2334 15.4573 4 12.5886 4 9.09998C4 6.23126 6.30664 4 9.23145 4C10.8843 4 12.4648 4.76147 13.5 5.93024L13.5 5.93024M21.5469 9.09985C21.5469 7.02802 19.8755 5.41656 17.7686 5.41656C16.5879 5.41656 15.3892 5.96552 14.626 6.85089L13.5181 8.10822L12.4102 6.85089C11.6108 5.94781 10.4302 5.41656 9.23145 5.41656C7.10596 5.41656 5.45312 7.04572 5.45312 9.09985C5.45312 11.9686 8.48682 14.6603 13.1006 18.7332L13.5 19.0873L13.8994 18.7332C18.5132 14.6603 21.5469 11.9686 21.5469 9.09985L21.5469 9.09985Z" clip-rule="evenodd" fill-rule="evenodd" fill-opacity="0.000000"/>
	</mask>
	<path id="形状" d="M13.5 5.93024C14.5352 4.74377 16.1157 4 17.7686 4C20.7114 4 23 6.24896 23 9.09998C23 12.5886 19.7666 15.4396 14.8804 19.7781L13.5 21L12.1196 19.7781C7.2334 15.4573 4 12.5886 4 9.09998C4 6.23126 6.30664 4 9.23145 4C10.8843 4 12.4648 4.76147 13.5 5.93024L13.5 5.93024M21.5469 9.09985C21.5469 7.02802 19.8755 5.41656 17.7686 5.41656C16.5879 5.41656 15.3892 5.96552 14.626 6.85089L13.5181 8.10822L12.4102 6.85089C11.6108 5.94781 10.4302 5.41656 9.23145 5.41656C7.10596 5.41656 5.45312 7.04572 5.45312 9.09985C5.45312 11.9686 8.48682 14.6603 13.1006 18.7332L13.5 19.0873L13.8994 18.7332C18.5132 14.6603 21.5469 11.9686 21.5469 9.09985L21.5469 9.09985Z" clip-rule="evenodd" fill-rule="evenodd" fill="#0E0E0E" fill-opacity="1.000000"/>
</svg>
