<svg width="26.000000" height="26.000000" viewBox="0 0 26 26" fill="none" xmlns="http://www.w3.org/2000/svg" xmlns:xlink="http://www.w3.org/1999/xlink">
	<desc>
			Created with Pixso.
	</desc>
	<defs/>
	<mask id="path-1-inside-1" fill="white">
		<path id="形状结合" d="M20.8569 10.1425C21.2515 10.1425 21.5713 9.82263 21.5713 9.42816L21.5713 4.48474C21.5713 4.45349 21.5459 4.42816 21.5146 4.42816L16.5713 4.42816C16.1768 4.42816 15.8569 4.74799 15.8569 5.14246C15.8569 5.53693 16.1768 5.85675 16.5713 5.85675L18.9824 5.85675C18.9756 5.86273 18.9692 5.86896 18.9629 5.87524L12.1138 12.7245C11.8535 12.9848 11.8354 13.4009 12.0718 13.6829C12.3394 14.002 12.8232 14.0231 13.1177 13.7286L19.9668 6.87927C20.0508 6.79547 20.1094 6.69543 20.1426 6.58893L20.1426 9.42816C20.1426 9.82263 20.4624 10.1425 20.8569 10.1425L20.8569 10.1425M20.1426 6.16547L20.1426 5.89917C20.1426 5.87573 20.1235 5.85675 20.1001 5.85675L19.9478 5.85675C19.9692 5.87659 19.9897 5.89801 20.0088 5.92096C20.0708 5.995 20.1157 6.07825 20.1426 6.16547L20.1426 6.16547Z" clip-rule="evenodd" fill-rule="evenodd" fill-opacity="0.000000"/>
	</mask>
	<path id="形状结合" d="M20.8569 10.1425C21.2515 10.1425 21.5713 9.82263 21.5713 9.42816L21.5713 4.48474C21.5713 4.45349 21.5459 4.42816 21.5146 4.42816L16.5713 4.42816C16.1768 4.42816 15.8569 4.74799 15.8569 5.14246C15.8569 5.53693 16.1768 5.85675 16.5713 5.85675L18.9824 5.85675C18.9756 5.86273 18.9692 5.86896 18.9629 5.87524L12.1138 12.7245C11.8535 12.9848 11.8354 13.4009 12.0718 13.6829C12.3394 14.002 12.8232 14.0231 13.1177 13.7286L19.9668 6.87927C20.0508 6.79547 20.1094 6.69543 20.1426 6.58893L20.1426 9.42816C20.1426 9.82263 20.4624 10.1425 20.8569 10.1425L20.8569 10.1425M20.1426 6.16547L20.1426 5.89917C20.1426 5.87573 20.1235 5.85675 20.1001 5.85675L19.9478 5.85675C19.9692 5.87659 19.9897 5.89801 20.0088 5.92096C20.0708 5.995 20.1157 6.07825 20.1426 6.16547L20.1426 6.16547Z" clip-rule="evenodd" fill-rule="evenodd" fill="#0E0E0E" fill-opacity="1.000000"/>
	<path id="路径" d="M13 3.25C13.4141 3.25 13.75 3.58582 13.75 4C13.75 4.41418 13.4141 4.75 13 4.75C8.44385 4.75 4.75 8.44366 4.75 13C4.75 17.5563 8.44385 21.25 13 21.25C17.5562 21.25 21.25 17.5563 21.25 13C21.25 12.5858 21.5859 12.25 22 12.25C22.4141 12.25 22.75 12.5858 22.75 13C22.75 18.3848 18.3848 22.75 13 22.75C7.61523 22.75 3.25 18.3848 3.25 13C3.25 7.61523 7.61523 3.25 13 3.25L13 3.25Z" fill-rule="evenodd" fill="#0E0E0E"/>
</svg>
